<svg id="Layer_1" data-name="Layer 1" xmlns="http://www.w3.org/2000/svg" height="100%" viewBox="0 0 100 100" preserveAspectRatio="xMinYMin">
	<defs>
		<style>.cls-1{fill:#42145f;}.cls-2{fill:#fff;}</style>
	</defs>
	<title>ECU Wordmark</title>
	<path class="cls-1" d="M40.387,13.261c.028-.086.06-.171.082-.257h-.157c.021.086.048.171.076.257m40.12,57.012c0-3.592-.151-41.635-.181-43.194l-.082-4.133-3.863-1.812A89.6,89.6,0,0,0,45.87,13.239c.3.357-11.246.344-10.95-.012A89.656,89.656,0,0,0,4.259,21.134L.4,22.946.314,27.079C.285,28.626.133,66.674.133,70.273c0,3.9,4.858,9.893,12.951,17.7,4.637,4.473,13.3,12.65,24.279,17.545l2.957,1.318,2.958-1.318c10.979-4.9,20.107-13.354,24.743-17.826,8.093-7.807,12.486-13.52,12.486-17.419"/>
	<path class="cls-2" d="M40.387,13.107c.028-.086.06-.172.082-.258h-.158c.021.086.048.172.076.258m40.253,57.2c0-3.6-.151-41.773-.182-43.337l-.082-4.147L76.5,21.006a89.894,89.894,0,0,0-30.612-7.921,5.2,5.2,0,0,0,1.114.98A88.745,88.745,0,0,1,76.111,21.8l3.375,1.583.071,3.6c.031,1.562.182,39.717.182,43.32,0,4.568-6.8,11.58-12.257,16.847C62.873,91.6,53.8,100.01,42.915,104.866l-2.6,1.156-2.594-1.156c-10.89-4.856-19.491-12.981-24.1-17.428C8.166,82.171.9,74.874.9,70.308c0-3.61.151-41.77.182-43.32l.072-3.6L4.529,21.8A88.753,88.753,0,0,1,33.8,14.05a5.172,5.172,0,0,0,1.1-.977A89.953,89.953,0,0,0,4.14,21.006L.265,22.824.182,26.971C.152,28.523,0,66.7,0,70.308c0,3.912,4.874,9.926,12.994,17.759,4.652,4.488,13.343,12.692,24.359,17.6l2.967,1.322,2.968-1.322c11.015-4.912,20.174-13.4,24.825-17.885C76.233,79.952,80.64,74.22,80.64,70.308"/>
	<path class="cls-2" d="M77.068,27.5l-.046-2.362-2.169-1.049a82.4,82.4,0,0,0-24.035-7.157c-.108,1.2-.263,3-.371,4.5a72.15,72.15,0,0,1,20.294,6.173l1.911.924.04,2.081c.02,1.026-.019,18.106-.044,28.83l3.692,1.506-3.7,3.5c0,1.72-.006,2.939-.006,3.387,0,3.757-6.872,10.994-9.826,13.931C58.9,85.652,50.968,92.8,41.788,97.017l-1.5.686L38.8,97.017c-9.18-4.217-17.108-11.365-21.017-15.25C14.828,78.83,7.956,71.593,7.956,67.836c0-.467,0-1.775-.007-3.613l-3.592-3.4,3.581-1.46c-.024-10.729-.063-27.732-.044-28.755l.041-2.081,1.389-.924A73.651,73.651,0,0,1,30.329,21.4c-.109-1.509-.264-3.3-.372-4.5A84.226,84.226,0,0,0,5.142,24.089L3.565,25.138,3.519,27.5c-.031,1.631.069,38.193.069,41.4,0,4.264,7.8,12.478,11.154,15.812,4.437,4.41,13.435,12.523,23.855,17.31l1.7.779,1.7-.779c10.42-4.787,19.418-12.9,23.855-17.31C69.2,81.376,77,73.162,77,68.9c0-3.2.1-39.767.069-41.4"/>
	<path class="cls-2" d="M22.643,53.433c.747-5.258,3.434-18.02,12.62-28.291,0,0-19.217,5.821-24.293,33.495Z"/>
	<path class="cls-2" d="M57.9,53.433c-.747-5.258-3.434-18.02-12.62-28.291,0,0,19.217,5.821,24.293,33.495Z"/>
	<path class="cls-2" d="M17.735,76.954l-.813-4.644-2.871,1.305V71.953l10.486-4.765v1.661l-2.376,1.08L20.97,76.735c3.005.687,3.714,3.934,3.766,7.9v7.923c2.611,2.3,5.135,2.468,7.367,4.44V84.638a8.066,8.066,0,0,1,5.928-7.721l-1.51-8.068H32.779V67.188H47.861v1.661H44.1l-1.511,8.068a8.064,8.064,0,0,1,5.928,7.721V96.6l7.367-4.646V84.638c.052-3.969.761-7.216,3.766-7.9L58.459,69.93l-2.376-1.08V67.188l10.486,4.765v1.662L63.7,72.311l-.813,4.644c2.433,1.014,3.059,4.071,3.059,7.684V83.466l3.947-4.109V66.911l-14.354-6.4H25.044l-14.3,6.373V79.532c1.231,1.078,2.56,2.966,3.943,4.182.107-3.2.821-5.833,3.043-6.76"/>
	<path class="cls-2" d="M37.9,24.427a46.948,46.948,0,0,0-10.78,28.667H53.416A46.939,46.939,0,0,0,42.637,24.427s.236-3.24,5.125-3.317l.27-4.473s-6.361.322-6.263-12.759A2.731,2.731,0,0,0,40.311,3.5v0l-.039,0-.04,0v0a2.731,2.731,0,0,0-1.458.377C39.1,16.959,32.51,16.637,32.51,16.637l.27,4.473c4.889.077,5.125,3.317,5.125,3.317"/>
	<path class="cls-2" d="M38.444,1.829a1.866,1.866,0,0,1,3.732,0,1.866,1.866,0,0,1-3.732,0"/>
	<path class="cls-2" d="M223.287,66.55V65.7c0-.234.094-.281.305-.281a.526.526,0,0,1,.565.539.488.488,0,0,1-.259.493.778.778,0,0,1-.4.094Zm2.063,1.473a1.174,1.174,0,0,1-.306-.234,4.989,4.989,0,0,1-.771-1.1.842.842,0,0,0,.631-.8c0-.678-.607-.817-1.123-.817h-1.593v.348c.375.023.422.023.422.445v1.592c0,.422-.047.422-.446.446v.371h1.57v-.371c-.4-.024-.447-.024-.447-.446V66.9h.094a.354.354,0,0,1,.329.164,5.523,5.523,0,0,0,.423.751,1.229,1.229,0,0,0,1.123.489Zm-1.734-3.816a2.389,2.389,0,0,1,2.368,2.482,2.359,2.359,0,1,1-2.368-2.482m0-.535a3.011,3.011,0,0,0-3.021,3.017,2.953,2.953,0,0,0,3.021,3.016,3.017,3.017,0,1,0,0-6.033"/>
	<path class="cls-2" d="M181.507,31.04V47.481c0,15.161,4.965,22.641,19.712,22.641s22.193-8.086,22.193-24.258V37.239c0-7.277,0-11.051,1.606-12.129,1.752-1.145,3.65-.741,3.65-2.291,0-.808-.511-1.078-1.606-1.078-1.168,0-3.431.539-6.862.539-3.505,0-6.06-.471-7.593-.471-1.168,0-1.825.269-1.825,1.145,0,1.819,2.628,1.213,5.621,2.291,2.848,1.078,3.286,3.841,3.286,8.625V45.527c0,7.21-.584,12.264-3.943,15.9-2.7,2.965-6.862,4.582-11.68,4.582-5.257,0-9.418-2.291-11.827-6.2-1.971-3.234-2.044-7.21-2.044-12.061V36.026c0-6.671.073-9.838,2.336-11.05,1.752-.944,3.65-.674,3.65-2.089,0-.876-.657-1.213-1.971-1.213-1.533,0-4.818.674-10.074.674-4.016,0-6.863-.472-8.4-.472-1.314,0-1.9.269-1.9,1.145,0,1.685,1.752,1.079,4.453,2.022,2.482.808,3.212,1.887,3.212,6M129.581,47.009c0,13.746,9.636,23.315,24.018,23.315a27.006,27.006,0,0,0,18.47-6.671c3.285-2.9,4.818-5.256,4.818-6.267a.887.887,0,0,0-.949-1.01c-1.314,0-2.117,1.819-4.38,3.706a22.689,22.689,0,0,1-14.017,5.323c-6.132,0-11.17-2.9-14.893-8.49a25.083,25.083,0,0,1-4.161-13.948c0-12.062,7.008-19.272,15.477-19.272a21.466,21.466,0,0,1,16.791,8.625c3.139,4.11,2.92,6,4.526,6,.657,0,1.022-.337,1.022-1.213,0-1.145-.8-4.919-1.1-11.05-.073-2.022.146-3.033-1.314-3.033-1.387,0-.949,2.089-2.555,2.089-1.314,0-6.789-4.11-16.207-4.11a24.611,24.611,0,0,0-18.689,8.018,26.831,26.831,0,0,0-6.862,17.991M98.147,32.994V59.408c0,3.1-.876,5.121-2.92,6.334-1.825,1.01-3.358,1.078-3.358,2.628,0,.741.584,1.213,1.752,1.213,1.387,0,5.329-.607,11.534-.607,5.549,0,10.148.607,13.652.607,4.526,0,7.593-1.146,9.637-3.841a15.382,15.382,0,0,0,2.847-7.345c0-.809-.438-1.348-1.022-1.348-1.46,0-1.46,2.359-4.6,4.785-2.994,2.358-8.1,3.908-12.995,3.908-5.475,0-5.84-1.415-5.84-6.2V49.031c0-2.763.365-3.773,3.066-3.773h2.847c4.234,0,6.205.673,7.373,3.5.876,2.224.146,3.841,1.971,3.841a1.115,1.115,0,0,0,1.241-1.28,79.145,79.145,0,0,1-.584-8.76,48.379,48.379,0,0,1,.292-5.121c0-.943-.292-1.415-1.168-1.415-1.752,0-1.752,2.089-3.139,3.841-1.46,1.752-3.285,2.291-6.424,2.291h-2.336c-2.263,0-3.139-.809-3.139-2.83V28.816c0-2.965,1.606-3.908,5.913-3.908,7.227,0,10.658.943,12.192,3.841,1.022,2.021-.073,3.908,1.9,3.908,1.022,0,1.168-.337,1.168-1.348,0-.471-.073-2.425-.073-5.727V24.167c0-2.224-.438-2.426-2.92-2.426-3.213,0-10.075.539-20.661.539-7.811,0-11.972-.539-12.629-.539-1.241,0-1.9.539-1.9,1.415,0,2.224,3.723.674,6.351,2.9,1.9,1.617,1.971,3.638,1.971,6.94"/>
</svg>